<svg width="36" height="36" fill="none" xmlns="http://www.w3.org/2000/svg"><g clip-path="url(#nav-logo_svg__a)"><rect width="36" height="36" rx="18" fill="#EDEEEF"></rect><path d="M6.65 31.972a10.034 10.034 0 0 1 2.888-3.989 10.216 10.216 0 0 1 6.562-2.375h3.812c2.403 0 4.728.841 6.562 2.376a10.036 10.036 0 0 1 2.884 3.98A17.925 17.925 0 0 1 18 36c-4.303 0-8.253-1.51-11.35-4.028ZM28.765 12.542l-4.484-4.43A8.89 8.89 0 0 0 21.4 6.207a8.97 8.97 0 0 0-6.8 0 8.888 8.888 0 0 0-2.882 1.905l-4.484 4.43a2.508 2.508 0 0 0-.744 1.775 2.484 2.484 0 0 0 .744 1.776l4.484 4.439a8.887 8.887 0 0 0 2.882 1.904 8.969 8.969 0 0 0 6.8 0 8.888 8.888 0 0 0 2.881-1.904l4.484-4.433a2.503 2.503 0 0 0 .75-1.778 2.48 2.48 0 0 0-.75-1.779ZM18 20.59a6.397 6.397 0 0 1-3.526-1.056 6.288 6.288 0 0 1-2.338-2.815 6.205 6.205 0 0 1-.36-3.624 6.25 6.25 0 0 1 1.736-3.212 6.368 6.368 0 0 1 3.25-1.716 6.412 6.412 0 0 1 3.666.358 6.33 6.33 0 0 1 2.847 2.312 6.22 6.22 0 0 1 1.067 3.486 6.235 6.235 0 0 1-1.86 4.431A6.382 6.382 0 0 1 18 20.589Z" fill="#0F0F10"></path><path d="M18 11.183c-.627 0-1.24.184-1.761.529a3.143 3.143 0 0 0-1.167 1.406 3.101 3.101 0 0 0-.18 1.81c.122.609.424 1.167.867 1.605a3.205 3.205 0 0 0 3.454.681 3.164 3.164 0 0 0 1.424-1.152 3.11 3.11 0 0 0-.392-3.96 3.174 3.174 0 0 0-2.245-.92Z" fill="#0F0F10"></path></g><defs><clipPath id="nav-logo_svg__a"><rect width="36" height="36" rx="18" fill="#fff"></rect></clipPath></defs></svg>